<svg xmlns="http://www.w3.org/2000/svg" viewBox="0 0 1080 1920" role="img" aria-label="Play Store screenshot 06_comunidad_b2b">
  <title>Play Store screenshot · 06_comunidad_b2b</title>
  <defs>
    <linearGradient id="psbg-06_comunidad_b2b" x1="0%" y1="0%" x2="100%" y2="100%">
      <stop offset="0%" stop-color="#9333EA"/>
      <stop offset="100%" stop-color="#581c87"/>
    </linearGradient>
    <radialGradient id="psblob-06_comunidad_b2b" cx="20%" cy="100%" r="80%">
      <stop offset="0%" stop-color="#fde047" stop-opacity=".4"/>
      <stop offset="100%" stop-color="#fde047" stop-opacity="0"/>
    </radialGradient>
  </defs>
  <rect width="1080" height="1920" fill="url(#psbg-06_comunidad_b2b)"/>
  <rect width="1080" height="1920" fill="url(#psblob-06_comunidad_b2b)"/>

  <!-- Headline -->
  <g transform="translate(60 180)">
    <text font-family="Fredoka, sans-serif" font-weight="500" font-size="26" fill="#fde047" letter-spacing="5">PAW FRIEND</text>
    <text x="0" y="92" font-family="Fredoka, sans-serif" font-weight="600" font-size="76" fill="#fff" letter-spacing="-2.5">Sostenido por</text>
    <text x="0" y="180" font-family="Fredoka, sans-serif" font-weight="600" font-size="76" fill="#fde047" letter-spacing="-2.5">la comunidad B2B</text>
  </g>

  <!-- Screenshot placeholder -->
  <g transform="translate(540 1020)">
    <rect x="-280" y="-460" width="560" height="920" rx="40" fill="#1a102b"/>
    <rect x="-272" y="-452" width="544" height="904" rx="32" fill="#faf5ff" stroke="#fde047" stroke-width="2" stroke-dasharray="10 8"/>
    <text x="0" y="-12" text-anchor="middle" font-family="'JetBrains Mono', monospace" font-size="22" fill="#9333EA" opacity=".5">screenshot</text>
    <text x="0" y="20" text-anchor="middle" font-family="'JetBrains Mono', monospace" font-size="16" fill="#9333EA" opacity=".4">app aquí · 544 × 904</text>
  </g>

  <!-- Subhead -->
  <text x="540" y="1670" text-anchor="middle" font-family="'Plus Jakarta Sans', sans-serif" font-weight="500" font-size="28" fill="#fde047">el dueño no paga</text>

  <!-- Brand bottom -->
  <g transform="translate(60 1820)">
    <g fill="#fff" transform="scale(0.054)">
      <ellipse cx="200" cy="270" rx="55" ry="68" transform="rotate(-22 200 270)"/>
      <ellipse cx="288" cy="180" rx="50" ry="62" transform="rotate(-10 288 180)"/>
      <ellipse cx="392" cy="180" rx="50" ry="62" transform="rotate(10 392 180)"/>
      <ellipse cx="480" cy="270" rx="55" ry="68" transform="rotate(22 480 270)"/>
      <ellipse cx="340" cy="430" rx="155" ry="135"/>
    </g>
    <text x="56" y="34" font-family="Fredoka, sans-serif" font-size="28" letter-spacing="-1.5">
      <tspan fill="#fff" font-weight="600">paw</tspan><tspan fill="#fde047" font-weight="500"> friend</tspan>
    </text>
    <text x="950" y="34" text-anchor="end" font-family="'JetBrains Mono', monospace" font-size="16" fill="#fde047" opacity=".7">pawfriend.cl</text>
  </g>
</svg>
